<svg xmlns="http://www.w3.org/2000/svg" width="359" height="119" fill="none"><path fill="#fff" d="M76.64 86.942H31.96l-10.27 30H0L43.87 2.792h21.2l43.54 114.15H87.08l-10.44-30Zm-6.03-17.13-9.62-27.56-.65-1.63c-2.12-6.03-4.89-13.7-6.2-18.92h-.16c-1.96 7.01-4.08 13.86-6.52 20.55l-9.62 27.56h32.78-.01Zm126.38 29.85v17.28h-77.46V2.792h20.22v96.87h57.24Zm103.72-44.52v61.8h-17.12l-1.47-15c-6.68 10.93-19.73 16.96-35.22 16.96-33.92 0-53.98-21.2-53.98-59.03 0-35.06 20.71-59.03 56.1-59.03 25.44 0 44.36 12.72 50.55 36.2l-21.36 4.08c-3.75-14.35-13.21-23.81-29.03-23.81-12.39 0-21.36 3.91-26.91 11.58-5.05 7.18-7.66 17.45-7.66 30.99s2.12 23.97 7.18 30.98c5.71 7.83 14.51 11.58 28.05 11.58 18.75 0 29.84-10.43 31.15-29.84h-33.76v-17.45h53.49l-.01-.01ZM336.69.002c11.99-.18 22.02 9.6 21.83 22.14.18 12.29-9.85 22.32-21.83 22.08-12.05.18-21.89-9.66-21.65-22.08-.24-12.54 9.6-22.32 21.65-22.14Zm0 2.69c-10.34-.18-18.71 8.5-18.53 19.45-.18 10.82 8.2 19.45 18.53 19.26 10.46.18 18.77-8.44 18.59-19.26.18-10.95-8.14-19.63-18.59-19.45Zm.37 6.12c6.3 0 9.97 3.85 11.07 8.68l-4.52.92c-.8-3.61-2.39-5.63-6.54-5.63-6.05 0-7.52 3.49-7.52 9.3 0 5.81 1.53 9.24 7.52 9.24 3.85 0 5.81-1.35 6.61-4.96l4.59.61c-.86 5.07-5.38 8.32-11.19 8.32-7.77 0-12.54-5.01-12.54-13.21 0-8.2 4.83-13.27 12.54-13.27"/></svg>